<svg xmlns="http://www.w3.org/2000/svg" xmlns:xlink="http://www.w3.org/1999/xlink" viewBox="0 0 548.88 169.01"><defs><style>.cls-1{fill:url(#linear-gradient);}.cls-2{fill:url(#linear-gradient-2);}.cls-3{fill:url(#linear-gradient-3);}.cls-4{fill:#253b59;}</style><linearGradient id="linear-gradient" x1="67.97" y1="63.24" x2="67.97" y2="150.46" gradientUnits="userSpaceOnUse"><stop offset="0" stop-color="#40b6e9"/><stop offset="0.51" stop-color="#76489c"/><stop offset="1" stop-color="#253b59"/></linearGradient><linearGradient id="linear-gradient-2" x1="116.57" y1="75.83" x2="116.5" y2="172.98" xlink:href="#linear-gradient"/><linearGradient id="linear-gradient-3" x1="4" y1="51.29" x2="186.33" y2="51.29" xlink:href="#linear-gradient"/></defs><g id="Layer_2" data-name="Layer 2"><g id="Layer_1-2" data-name="Layer 1"><path class="cls-1" d="M80.16,133.33a36.43,36.43,0,0,1-4.2.25,35.92,35.92,0,1,1,24.71-62l10.91-11.27a51.59,51.59,0,1,0-19.93,86.51Z"/><polygon class="cls-2" points="67.97 72.91 115.6 120.47 165.11 72.91 165.11 169.01 148.6 169.01 148.6 112.39 116.54 144.42 67.97 94.91 67.97 72.91"/><path class="cls-3" d="M10,97.59V49.37L7.52,53.69l8.94-4.42L37.93,38.65l26-12.84L86.35,14.7c3.63-1.79,7.36-3.46,10.92-5.4l.15-.07h-5l9,4.34L123,23.94l26.08,12.53,22.65,10.88c3.63,1.75,7.23,3.7,10.95,5.26l.15.08-2.48-4.32V97.59a5,5,0,0,0,10,0V48.37a4.94,4.94,0,0,0-2.47-4.32l-9-4.34L157.14,29.29,131,16.7,108.37,5.85c-3.61-1.73-7.2-3.51-10.83-5.2a5.7,5.7,0,0,0-5.28,0l-1.14.56L85.63,3.93,65.34,14,39.4,26.79,15.94,38.39,3.08,44.75l-.6.3A5,5,0,0,0,0,49.37V97.59a5.06,5.06,0,0,0,5,5,5.09,5.09,0,0,0,5-5Z"/><path class="cls-4" d="M197.1,140.56a23.62,23.62,0,0,1,23.38-23.78,22.87,22.87,0,0,1,18.77,9.55l-7.08,5.15a13.51,13.51,0,0,0-11.36-5.95c-8.34,0-14.42,6.82-14.42,15s6,15.09,14.36,15.09a13.56,13.56,0,0,0,11.42-5.94l7.08,5.14a22.87,22.87,0,0,1-18.77,9.55A23.59,23.59,0,0,1,197.1,140.56Z"/><path class="cls-4" d="M268.44,132.41h8.74V163.6h-8.74v-4.47a12.36,12.36,0,0,1-10.29,5.27c-8.62,0-15-6.68-15-16.36s6.28-16.43,15.23-16.43c4,0,8,1.74,10.09,4.94ZM268.17,148a8.21,8.21,0,0,0-8.15-8.28,8,8,0,0,0-7.95,8.28,8.13,8.13,0,0,0,8,8.22A8.22,8.22,0,0,0,268.17,148Z"/><path class="cls-4" d="M284.06,153.78h8.22c0,1.81,1.54,3.74,4.61,3.74,2.54,0,4.47-1.26,4.47-3.07,0-1.33-1.07-2-3.4-2.6l-4.14-1c-8-2.14-9.09-6.62-9.09-9.89,0-4.81,5-9.35,12.23-9.35,5.67,0,12.35,2.74,12.28,10.15H300.9c0-2.13-1.74-3.27-3.81-3.27s-3.61,1.14-3.61,2.74,1.34,2.2,3.07,2.67l5.15,1.34c7.48,2,8.41,6.67,8.41,9.21,0,6.55-6.68,10-13.09,10S284.13,160.66,284.06,153.78Z"/><path class="cls-4" d="M340.43,132.41h8.75V163.6h-8.75v-4.47a12.34,12.34,0,0,1-10.28,5.27c-8.62,0-15-6.68-15-16.36s6.28-16.43,15.23-16.43c4,0,8,1.74,10.08,4.94ZM340.17,148a8.21,8.21,0,0,0-8.15-8.28,8,8,0,0,0-7.95,8.28,8.13,8.13,0,0,0,8,8.22A8.23,8.23,0,0,0,340.17,148Z"/><path class="cls-4" d="M412.23,163.6h-9.48l-3.34-28.52-11.22,23.31h-7.28l-11.35-23.31-3.34,28.52h-9.49l5.68-46h7.88l14.23,30.18,14.09-30.18h8Z"/><path class="cls-4" d="M442.69,132.41h8.75V163.6h-8.75v-4.47a12.35,12.35,0,0,1-10.28,5.27c-8.62,0-15-6.68-15-16.36s6.28-16.43,15.23-16.43c4,0,8,1.74,10.08,4.94ZM442.42,148a8.2,8.2,0,0,0-8.14-8.28,8,8,0,0,0-7.95,8.28,8.12,8.12,0,0,0,8,8.22A8.22,8.22,0,0,0,442.42,148Z"/><path class="cls-4" d="M490.71,146.5v17.1H482V147c0-4.87-2.94-7.08-5.94-7.08s-7,1.67-7,7.35V163.6h-8.75V132.41H469v5.28c1.33-4.21,6.27-6.08,9.35-6.08C486.5,131.61,490.78,137.15,490.71,146.5Z"/><path class="cls-4" d="M497.93,121.66a5.55,5.55,0,1,1,5.54,5.28A5.43,5.43,0,0,1,497.93,121.66Zm1.2,41.94V132.41h8.75V163.6Z"/><path class="cls-4" d="M540.14,132.41h8.74V163.6h-8.74v-4.47a12.37,12.37,0,0,1-10.29,5.27c-8.62,0-15-6.68-15-16.36s6.28-16.43,15.23-16.43c4,0,8,1.74,10.09,4.94ZM539.87,148a8.21,8.21,0,0,0-8.15-8.28,8,8,0,0,0-8,8.28,8.13,8.13,0,0,0,8,8.22A8.23,8.23,0,0,0,539.87,148Z"/></g></g></svg>