<svg xmlns="http://www.w3.org/2000/svg" xmlns:xlink="http://www.w3.org/1999/xlink" viewBox="0 0 190.33 169.01"><defs><style>.cls-1{fill:url(#linear-gradient);}.cls-2{fill:url(#linear-gradient-2);}.cls-3{fill:url(#linear-gradient-3);}</style><linearGradient id="linear-gradient" x1="67.97" y1="63.24" x2="67.97" y2="150.46" gradientUnits="userSpaceOnUse"><stop offset="0" stop-color="#40b6e9"/><stop offset="0.51" stop-color="#76489c"/><stop offset="1" stop-color="#253b59"/></linearGradient><linearGradient id="linear-gradient-2" x1="116.57" y1="75.83" x2="116.5" y2="172.98" xlink:href="#linear-gradient"/><linearGradient id="linear-gradient-3" x1="4" y1="51.29" x2="186.33" y2="51.29" xlink:href="#linear-gradient"/></defs><g id="Layer_2" data-name="Layer 2"><g id="Layer_1-2" data-name="Layer 1"><path class="cls-1" d="M80.16,133.33a36.43,36.43,0,0,1-4.2.25,35.92,35.92,0,1,1,24.71-62l10.91-11.27a51.59,51.59,0,1,0-19.93,86.51Z"/><polygon class="cls-2" points="67.97 72.91 115.6 120.47 165.11 72.91 165.11 169.01 148.6 169.01 148.6 112.39 116.54 144.42 67.97 94.91 67.97 72.91"/><path class="cls-3" d="M10,97.59V49.37L7.52,53.69l8.94-4.42L37.93,38.65l26-12.84L86.35,14.7c3.63-1.79,7.36-3.46,10.92-5.4l.15-.07h-5l9,4.34L123,23.94l26.08,12.53,22.65,10.88c3.63,1.75,7.23,3.7,10.95,5.26l.15.08-2.48-4.32V97.59a5,5,0,0,0,10,0V48.37a4.94,4.94,0,0,0-2.47-4.32l-9-4.34L157.14,29.29,131,16.7,108.37,5.85c-3.61-1.73-7.2-3.51-10.83-5.2a5.7,5.7,0,0,0-5.28,0l-1.14.56L85.63,3.93,65.34,14,39.4,26.79,15.94,38.39,3.08,44.75l-.6.3A5,5,0,0,0,0,49.37V97.59a5.06,5.06,0,0,0,5,5,5.09,5.09,0,0,0,5-5Z"/></g></g></svg>